<svg xmlns="http://www.w3.org/2000/svg" xmlns:xlink="http://www.w3.org/1999/xlink" version="1.1" id="Isolation_Mode2" x="0" y="0" width="13" height="17.46" viewBox="303.59 387.43 13 17.46" enable-background="new 303.587 387.426 13 17.463" xml:space="preserve">
<path d="M310.09 404.89c-3.58 0-6.5-2.87-6.5-6.39 0-2.77 1.51-4.44 2.61-5.66 0.23-0.25 0.44-0.49 0.62-0.71 1.38-1.71 2.28-2.98 2.52-4.09 0.08-0.36 0.4-0.61 0.77-0.61s0.68 0.26 0.76 0.62c0.24 1.16 1.29 2.52 2.52 4.09 0.19 0.24 0.42 0.49 0.66 0.76 1.08 1.21 2.56 2.86 2.55 5.6C316.59 402.02 313.67 404.89 310.09 404.89zM310.1 390.23c-0.49 0.85-1.19 1.78-2.08 2.88 -0.21 0.26-0.44 0.51-0.68 0.78 -1.03 1.14-2.21 2.44-2.21 4.61 0 2.67 2.22 4.83 4.94 4.83 2.73 0 4.94-2.17 4.94-4.83 0.01-2.14-1.14-3.42-2.15-4.55 -0.26-0.29-0.51-0.56-0.73-0.84C311.36 392.08 310.63 391.14 310.1 390.23z">
</path>
</svg>